<svg width="128" height="128" viewBox="0 0 128 128" fill="none" xmlns="http://www.w3.org/2000/svg">
<path d="M18.1324 69.9404H39.4118H49.7015L55.5072 51.9135L63.0993 89.204L69.3516 69.9404H92.3512H100.915H111.554C115.447 69.9404 117.264 67.0858 117.264 62.5445C117.264 58.0031 117.264 16.7417 65.3624 16.7417C11.6447 16.7417 10.7365 54.6296 10.7365 62.5445C10.7365 68.8764 15.6671 70.1134 18.1324 69.9404Z" stroke="white" stroke-width="6" stroke-linecap="round" stroke-linejoin="round"/>
<path d="M76.6252 81.1867H84.6337H107.264C112.786 81.1867 117.264 85.6639 117.264 91.1867V93.2798C117.264 98.8026 112.786 103.28 107.264 103.28H20.7365C15.2136 103.28 10.7365 98.8026 10.7365 93.2798V91.1867C10.7365 85.6639 15.21 81.1867 20.7329 81.1867C29.5029 81.1867 42.2794 81.1867 51.6268 81.1867" stroke="white" stroke-width="6" stroke-linecap="round" stroke-linejoin="round"/>
</svg>
