<?xml version="1.0" encoding="UTF-8"?>
<!DOCTYPE svg  PUBLIC '-//W3C//DTD SVG 1.1//EN'  'http://www.w3.org/Graphics/SVG/1.1/DTD/svg11.dtd'>
<svg enable-background="new 0 0 600 88.648" version="1.1" viewBox="0 0 600 88.648" xml:space="preserve" xmlns="http://www.w3.org/2000/svg">
<path d="m238.65 30.212c-8.063-0.026-8.345 6.75-8.345 17.107 0 11.915 0.186 16.643 8.345 16.643 8.153 0 8.339-4.729 8.339-16.643 0-10.356 0.229-17.069-8.339-17.107m0-2.232c10.853 8e-3 19.252 9.073 19.252 19.34 0 10.265-7.825 18.881-19.252 18.881-11.428 0-19.247-8.616-19.247-18.881 1e-3 -10.267 8.431-19.345 19.247-19.34" fill="#000"/>
<path d="m448.06 31.491h7.373c8.089 0 11.412-3.788 11.412-11.874 0-10.064-2.7-12.047-10.96-12.013h-7.825v23.887zm0 30.729h8.902v2.483h-29.292v-2.483h8.897v-54.998h-8.897v-2.525h30.097c9.789 0 21.478 1.171 21.478 13.657 0 10.155-10.694 13.748-19.044 14.646 14.015 2.16 17.268 9.525 17.268 24.171 0 3.146 0.262 6.935 8.822 4.957l-0.035 2.591c-2.484 0.876-5.034 1.078-7.639 1.078-9.079 0-13.884-3.54-13.839-13.747 0.03-7.458-1.256-13.026-3.595-15.009-2.515-2.155-5.23-2.675-8.179-2.644h-4.944v27.823z" fill="#000"/>
<path d="m525.45 31.509h-4.408v-2.492h20.575v2.492h-5.745l9.976 21.591 8.525-21.591h-6.463v-2.492l14.303-6e-3 0.011 2.498h-4.949l-16.019 40.272c-1.987 5.039-4.692 13.976-11.495 13.842-2.515-0.047-4.943-2.062-4.943-4.582 0-2.604 1.934-4.778 4.459-4.778 2.235 0 2.823 0.507 4.167 2.122 0.633 0.808 1.238 2.273 3.863-3.722 1.46-3.349 2.796-6.602 3.949-10.067l-15.806-33.087z" fill="#000"/>
<path d="m584.45 46.459c-5.569 0-13.027 0.72-13.027 7.996 0 3.954 1.62 6.921 5.841 6.921 3.147 0 5.434-2.175 6.511-5.051 0.538-1.35 0.676-3.22 0.676-4.932v-4.934h-1e-3zm0-11.952c-0.015-3.146-3.012-4.383-5.926-4.403-4.745-0.037-9.083 2.944-7.124 3.749 1.824 0.742 2.09 2.271 2.09 3.979 0 2.336-2.238 3.952-4.306 3.952-2.512 0-4.768-1.786-4.916-4.62-0.354-7.021 8.397-9.156 14.489-9.156 4.421 0 7.167 0.344 10.709 2.058 3.323 1.61 4.152 3.951 4.152 6.731v22.726c0 1.169 0.479 2.287 2.157 2.297 1.081 0.012 2.447-1.424 3.095-2.274l1.127 1.468c-2.334 2.87-4.763 4.763-8.536 4.763-3.953 0-6.468-2.429-7.011-6.378-3.23 3.949-5.373 6.495-13.141 6.485-5.388 0-9.321-3.073-9.321-8.824 0-10.691 14.36-13.055 22.447-12.603l0.015-9.95z" fill="#000"/>
<path d="m306.31 62.236h-5.513v-25.085c0-5.849-5.399-8.974-11.517-8.783-6.113 0.191-10.934 2.556-13.39 8.19l0.021-5.055h0.01v-2.477h-15.482v2.477h6.113v30.721h-6.113v2.495h21.298v-2.495h-5.66v-16.359c0.053-10.382 6.957-14.137 9.85-14.074 2.577 0.067 5.229 1.263 5.229 5.374l-0.064 25.072h-5.729v2.483h20.948v-2.484h-1e-3z" fill="#000"/>
<polygon points="75.043 7.211 75.043 4.697 52.305 4.697 39.108 45.44 26.696 4.697 2.933 4.697 2.933 7.211 11.83 7.211 11.83 62.225 2.933 62.225 2.933 64.72 24.007 64.72 24.007 62.225 15.285 62.225 15.285 8.468 33.345 64.72 36.402 64.72 54.584 8.965 54.584 62.225 45.703 62.225 45.703 64.72 75.043 64.72 75.043 62.225 66.146 62.225 66.146 7.211" fill="#000"/>
<polygon points="92.684 62.225 92.642 29.027 76.484 29.027 76.484 31.485 82.883 31.485 82.883 62.225 76.425 62.225 76.425 64.72 99.333 64.72 99.333 62.225" fill="#000"/>
<path d="m174.5 62.216v-25.097c0-5.856-5.4-8.975-11.519-8.783-6.112 0.189-10.62 3.173-13.197 8.712l-0.028-31.301c-1.477 0.425-3.811 0.47-6 0.425-5.183-0.098-7.447-1.757-13.734-1.747-11.843 0.016-16.078 7.734-16.354 12.866-0.25 4.683 1.312 8.704 6.479 11.55-6.83-1.741-16.088 1.729-16.285 10.683-0.165 7.648 4.241 9.794 7.876 10.892 2.126 0.648 6.825 1.222 7.585 1.339 6.034 0.876 7.526 2.712 7.574 5.327 0.07 3.431-2.11 6.489-8.646 6.489-7.07 0-11.141-4.582-11.96-11.146l-0.931 6e-3v-0.029h-1.748v12.318h1.748l1.924-2.105c1.611 1.105 4.715 3.168 11.178 3.188 6.788 0.021 13.07-2.833 13.07-11.991 0-8.855-6.139-10.514-9.818-11.119-2.689-0.441-4.735-0.864-8.062-1.454-4.837-0.842-5.257-3.63-4.965-5.539 0.293-1.878 2.01-4.916 7.953-4.932 6.207-6e-3 9.189 5.187 9.475 8.817l2.393-0.011v-0.029h5e-3v-0.615l0.042-8.85c-3.715-0.114-10.109-2.679-9.902-10.88 0.196-8.049 7.738-10.33 11.407-10.33 3.534 0 6.792 0.816 10.093 2.592l-0.033 50.794h-5.931v2.462h20.968v-0.012h0.011v-2.45h-5.384v-16.02c0.048-4.851 1.567-8.334 3.455-10.671 2.158-2.666 4.449-3.787 6.303-3.839 2.919-0.078 5.252 1.065 5.252 5.173v25.314h-5.641l0.011 2.509h20.889v-2.514l-5.553 8e-3z" fill="#000"/>
<path d="m212.92 53.313c-0.606 6.288-5.109 10.459-12.226 10.459-5.284 0-8.122-3.9-8.047-12.176l0.021-6.252c0-6.505-0.622-15.071 8.154-15.174 1.472-0.021 6.426 0.636 6.426 3.205 0 1.65-2.811 2.378-2.95 5.192-0.17 3.636 3.115 4.712 5.784 4.431 3.119-0.333 4.65-3.064 4.65-5.536 0-6.873-8.222-9.531-13.723-9.531-5.039 0-9.164 1.377-12.922 4.675-3.48 3.021-6.271 8.07-6.356 13.606-0.202 12.875 6.197 19.935 18.454 19.935 8.866 0 14.643-4.641 15.308-12.833l-1.648-2e-3 -0.925 1e-3z" fill="#000"/>
<path d="m355.12 51.148c0 5.385-5.081 12.322-10.769 12.322-4.941 0-6.448-3.647-6.448-7.953v-15.192c0-3.825 0.422-9.556 6.557-9.655 7.137-0.114 10.66 7.572 10.66 13.232v7.246zm9.636 11.088v-58.655c-5.283 0.98-10.608 1.084-16.12 1.084v2.525h6.398v27.28c-1.329-3.093-4.692-6.113-10.933-6.139-9.347-0.04-17.164 9.132-17.164 18.961 0 5.542 1.524 10.989 5.041 14.215 3.625 3.311 6.192 4.295 10.953 4.295 5.659 0 10.053-2.935 12.205-7.696l-0.018 7.169c2.567-0.396 6.341-0.551 9.408-0.6l6.777 0.044v-2.483h-6.547z" fill="#000"/>
<path d="m389.88 30.452c7.405 0 6.573 5.732 6.573 11.872h-13.381c1e-3 -5.77 0.095-11.872 6.808-11.872m14.952 22.924l-0.399 0.016c-1.281 6.367-5.803 10.429-13.246 10.429-7.546 0-8.113-5.858-8.113-12.273v-6.336l23.773-4e-3s-0.104-1.584-0.134-2.613c-0.354-10.465-8.073-14.569-16.312-14.569-9.992 0-18.191 8.794-18.234 19.25-0.043 10.421 6.621 19.016 17.594 19.042 9.618 0.022 16.13-4.688 17.268-12.942h-2.197z" fill="#000"/>
<path d="m504.32 30.24c7.397 0 6.568 5.731 6.568 11.872h-13.384c0-5.777 0.106-11.872 6.816-11.872m14.574 22.854c-1.289 6.352-5.851 10.514-13.273 10.514-7.549 0-8.116-5.857-8.116-12.278v-6.327l23.773-6e-3s-0.096-1.583-0.128-2.612c-0.362-10.468-8.079-14.571-16.311-14.571-9.993 0-18.194 8.796-18.237 19.25-0.048 10.421 6.624 19.011 17.595 19.042 9.646 0.021 16.162-4.708 17.27-13.012h-2.573z" fill="#000"/>
</svg>
