<?xml version="1.0" standalone="no"?>
<!DOCTYPE svg PUBLIC "-//W3C//DTD SVG 20010904//EN"
 "http://www.w3.org/TR/2001/REC-SVG-20010904/DTD/svg10.dtd">
<svg version="1.0" xmlns="http://www.w3.org/2000/svg" viewBox="0 0 1080.000000 540.000000" preserveAspectRatio="xMidYMid meet">
<g transform="translate(0.000000,540.000000) scale(0.100000,-0.100000)"
fill="#000000" stroke="none">
<path d="M10495 3903 c-27 -8 -66 -21 -85 -28 -19 -7 -64 -21 -100 -30 -36 -9
-80 -23 -98 -31 -18 -8 -43 -14 -57 -14 -36 0 -55 -26 -55 -74 0 -46 16 -68
59 -81 30 -9 121 -102 121 -124 0 -9 7 -25 15 -35 12 -16 15 -54 15 -172 0
-84 -4 -155 -9 -159 -5 -3 -29 -1 -53 4 -24 6 -67 15 -97 22 -73 16 -214 14
-286 -5 -157 -39 -262 -99 -368 -210 -51 -52 -147 -192 -147 -212 0 -7 -6 -25
-14 -41 -38 -74 -51 -147 -51 -293 0 -156 7 -190 66 -315 32 -67 112 -165 176
-214 50 -39 111 -71 133 -71 9 0 22 -6 28 -12 21 -21 269 -24 316 -4 21 9 49
16 61 16 12 0 28 7 35 15 7 8 19 15 27 15 8 0 35 14 60 30 24 17 48 30 52 30
4 0 16 9 26 20 34 37 45 26 45 -45 l0 -65 245 0 245 0 0 30 c0 24 -4 30 -21
30 -26 0 -102 35 -118 54 -7 8 -22 32 -34 53 l-22 38 -3 948 -3 947 -27 -1
c-15 0 -49 -8 -77 -16z m-440 -903 c123 -42 195 -124 236 -270 16 -55 19 -101
19 -310 l0 -246 -37 -35 c-80 -75 -162 -108 -268 -109 -69 0 -144 20 -176 47
-8 7 -20 13 -26 13 -21 0 -109 108 -141 173 -88 178 -97 383 -23 535 22 46
116 149 155 169 102 55 171 64 261 33z"/>
<path d="M5680 3871 c-8 -5 -42 -17 -75 -27 -33 -9 -78 -23 -100 -30 -22 -6
-74 -22 -115 -35 -144 -43 -145 -43 -148 -79 -6 -54 5 -74 49 -95 55 -26 120
-92 139 -141 12 -32 15 -149 18 -689 3 -594 1 -655 -14 -710 -19 -62 -50 -121
-77 -143 -9 -8 -37 -22 -64 -32 -39 -14 -48 -23 -48 -41 l0 -24 340 0 340 0 3
22 c3 18 -6 26 -48 44 -56 24 -84 57 -114 134 -19 48 -20 85 -22 950 l-3 900
-23 2 c-13 1 -30 -2 -38 -6z"/>
<path d="M0 3752 l0 -79 64 -11 c35 -7 71 -12 80 -12 19 0 72 -35 98 -65 47
-54 48 -67 48 -764 0 -614 -1 -660 -19 -721 -24 -83 -41 -114 -81 -150 -33
-30 -116 -60 -164 -60 -23 0 -26 -4 -26 -35 l0 -35 488 2 487 3 0 30 c0 25 -4
30 -25 33 -61 6 -147 27 -170 41 -38 22 -90 82 -97 111 -3 14 -12 34 -19 45
-11 17 -14 171 -14 790 l-1 770 153 3 c162 3 249 -10 325 -49 45 -23 109 -84
130 -123 48 -92 69 -272 38 -326 -8 -14 -14 -33 -15 -43 0 -33 -70 -125 -123
-164 -81 -60 -167 -86 -262 -81 l-60 3 -3 -56 c-4 -79 5 -84 137 -83 121 1
271 25 351 55 30 11 64 23 75 27 36 10 165 104 200 145 19 22 43 59 54 81 10
23 27 59 37 81 15 33 18 64 18 170 0 130 0 130 -38 207 -71 144 -172 233 -326
285 -135 47 -126 46 -747 50 l-593 4 0 -79z"/>
<path d="M4625 3522 l-50 -17 -16 -80 c-36 -180 -149 -297 -304 -314 l-60 -6
0 -35 c0 -32 3 -35 45 -47 58 -16 110 -60 138 -115 21 -42 22 -53 24 -468 l3
-425 26 -55 c29 -62 88 -119 159 -153 40 -19 61 -21 180 -21 106 0 143 4 170
17 18 9 38 17 43 17 20 0 100 74 133 125 56 83 21 115 -58 53 -38 -31 -44 -33
-119 -32 -121 3 -180 39 -220 134 -11 29 -14 112 -14 455 l0 420 168 5 c177 5
186 8 187 55 0 11 7 31 16 43 8 12 14 30 12 40 -3 15 -23 18 -193 22 l-190 5
-2 185 c-1 102 -2 191 -2 198 -1 16 -15 15 -76 -6z"/>
<path d="M7173 3182 c-62 -64 -73 -67 -156 -39 -138 47 -299 59 -432 34 -61
-12 -134 -42 -225 -92 -71 -39 -232 -202 -246 -250 -4 -11 -12 -27 -19 -35 -7
-8 -25 -46 -40 -85 -83 -209 -77 -417 17 -610 36 -74 46 -88 106 -150 113
-118 224 -165 391 -165 147 0 291 44 391 121 20 15 44 29 55 31 18 3 20 -4 23
-59 l3 -63 220 0 220 0 -3 26 c-2 21 -13 30 -58 47 -45 18 -59 29 -75 62 -19
38 -20 65 -25 650 l-5 610 -52 3 c-48 3 -54 1 -90 -36z m-351 -190 c54 -24
130 -91 163 -142 51 -81 57 -120 62 -382 3 -135 3 -261 -1 -280 -5 -26 -21
-43 -71 -80 -35 -27 -71 -48 -80 -48 -9 0 -30 -7 -46 -16 -39 -20 -185 -15
-244 8 -40 16 -165 114 -165 129 0 4 -13 27 -28 51 -52 81 -92 231 -92 346 1
192 112 361 280 424 59 22 159 17 222 -10z"/>
<path d="M2245 3190 c-104 -16 -132 -24 -200 -56 -160 -74 -291 -216 -352
-379 -19 -51 -52 -210 -53 -251 0 -48 28 -204 46 -249 88 -226 254 -384 471
-449 69 -21 291 -21 348 -1 22 8 48 15 57 15 9 0 40 14 68 30 28 17 53 30 57
30 9 0 86 61 118 94 54 55 103 128 146 216 23 49 40 105 54 179 72 394 -147
730 -525 806 -94 19 -178 24 -235 15z m167 -162 c152 -34 244 -174 283 -432
40 -264 -1 -464 -116 -576 -57 -55 -100 -71 -203 -77 -68 -4 -86 -1 -124 17
-43 22 -122 92 -135 120 -4 8 -16 30 -28 49 -45 74 -89 270 -89 394 0 82 27
240 52 307 38 102 118 178 208 198 63 14 90 14 152 0z"/>
<path d="M8540 3194 c-45 -8 -105 -27 -121 -41 -8 -7 -21 -13 -28 -13 -12 0
-68 -44 -156 -122 -62 -56 -84 -49 -85 25 -1 45 -33 132 -47 131 -7 -1 -23 -2
-36 -2 -12 -1 -36 -14 -53 -29 -107 -99 -146 -116 -269 -123 l-100 -5 0 -55
c0 -51 2 -55 25 -58 31 -4 105 -75 131 -124 18 -34 19 -61 19 -364 0 -305 -1
-331 -21 -383 -11 -31 -32 -69 -47 -86 -30 -33 -91 -65 -122 -65 -16 0 -20 -7
-20 -30 l0 -30 373 2 372 3 3 23 c2 12 -2 24 -10 26 -97 26 -133 43 -161 78
-62 77 -66 108 -67 466 0 305 1 325 20 363 35 67 150 136 266 160 142 29 259
-38 297 -169 14 -52 17 -104 17 -349 -1 -328 -10 -389 -68 -463 -35 -42 -103
-80 -146 -80 -22 0 -26 -4 -26 -30 l0 -30 371 0 370 0 -3 27 c-2 22 -13 31
-62 50 -66 27 -87 47 -119 113 -20 43 -22 63 -28 445 -4 220 -11 418 -17 440
-29 117 -103 207 -207 253 -67 30 -194 54 -245 46z"/>
<path d="M3555 3165 c-22 -8 -51 -27 -65 -42 -64 -70 -129 -94 -275 -102
l-110 -6 -3 -34 c-3 -34 27 -81 53 -81 15 0 99 -88 118 -125 43 -80 47 -116
47 -393 -1 -234 -3 -274 -19 -321 -24 -69 -83 -145 -124 -161 -77 -28 -78 -30
-75 -53 l3 -22 399 -3 c229 -1 404 2 409 7 18 18 -12 51 -45 51 -57 0 -145 31
-177 62 -17 17 -41 51 -53 77 -22 44 -22 57 -23 366 0 289 2 324 18 348 9 14
17 34 17 44 0 32 94 110 154 127 30 9 64 16 76 16 28 0 80 -27 101 -54 14 -17
18 -18 22 -6 3 8 12 42 22 75 10 33 24 75 31 93 8 18 14 43 14 57 0 20 -7 25
-50 34 -140 30 -213 2 -312 -117 -32 -39 -46 -40 -53 -4 -16 85 -42 176 -50
178 -6 2 -28 -3 -50 -11z"/>
</g>
</svg>
