
<svg viewBox="0 0 1000 759" version="1.1" xmlns="http://www.w3.org/2000/svg" xmlns:xlink="http://www.w3.org/1999/xlink">
    <g id="Page-1" stroke="none" stroke-width="1" fill="none" fill-rule="evenodd">
        <g id="pwc" transform="translate(-1.000000, 0.000000)" fill-rule="nonzero">
            <polygon id="path4061" fill="#E669A2" points="1001 325.90288 637.26464 325.90288 637.26464 232.803 1001 232.803"></polygon>
            <polygon id="path4103" fill="#F3BE26" points="953.75557 325.90288 637.26464 325.90288 637.26464 93.051274 953.75557 93.051274"></polygon>
            <polygon id="path4089" fill="#EE9C34" points="822.99817 325.90288 637.26464 325.90288 637.26464 3.8618832e-05 822.99817 3.8618832e-05"></polygon>
            <polygon id="path4075" fill="#F3BC87" points="859.53875 325.90288 637.26464 325.90288 637.26464 36.365789 859.53875 36.365789 859.53875 325.90288"></polygon>
            <polygon id="path4688" fill="#E3721C" points="637.21316 36.420649 637.21316 325.87335 822.97769 325.87335 822.97769 36.420649"></polygon>
            <polygon id="path4119" fill="#AD1B02" points="451.0164 325.90296 637.26464 325.90296 637.26464 372.45775 451.0164 372.45775"></polygon>
            <polygon id="path4698" fill="#E88D14" points="637.21316 92.99991 637.21316 325.87335 859.64494 325.87335 859.64494 92.99991"></polygon>
            <polygon id="path4693" fill="#D85604" points="637.21316 92.99991 637.21316 325.87335 822.97769 325.87335 822.97769 92.99991"></polygon>
            <polygon id="path4117" fill="#C14303" points="753.41366 325.90288 637.26464 325.90288 637.26464 186.14144 753.41366 186.14144"></polygon>
            <polygon id="path4713" fill="#DB4E18" points="637.21316 232.86967 637.21316 325.87335 953.86276 325.87335 953.86276 232.86967"></polygon>
            <polygon id="path4708" fill="#D1390D" points="637.21316 232.86967 637.21316 325.87335 859.64494 325.87335 859.64494 232.86967"></polygon>
            <polygon id="path4703" fill="#C22303" points="637.21316 232.86967 637.21316 325.87335 822.97769 325.87335 822.97769 232.86967"></polygon>
            <polygon id="path4625" fill="#AD1B02" points="637.21316 232.86967 637.21316 325.87335 753.52847 325.87335 753.52847 232.86967"></polygon>
            <g id="g2925" transform="translate(0.501080, 479.791780)" fill="#000000">
                <path d="M677.25948,21.45637 C645.56934,27.09017 628.66793,51.03384 628.66793,92.58313 C628.66793,134.83665 651.20315,163.00567 684.30174,163.00567 C700.49892,163.00567 714.58343,157.37186 744.16089,142.58313 C744.16089,177.09017 744.16089,177.09017 744.16089,177.09017 C708.2454,193.99158 687.11864,198.21693 658.94962,198.21693 C627.25948,198.21693 604.72427,190.47046 587.11864,171.45637 C568.80878,153.14651 558.94962,129.20285 558.94962,101.73806 C558.94962,41.87891 604.02005,0.32961 669.513,0.32961 C712.47075,0.32961 742.75244,20.75215 742.75244,49.62539 C742.75244,68.63947 728.66793,82.01975 708.2454,82.01975 C697.68202,82.01975 689.23131,78.49862 677.25948,72.1606" id="path2850"></path>
                <path d="M518.80878,101.73806 C547.68202,65.82257 558.2454,51.03384 558.2454,33.4282 C558.2454,15.82257 544.16089,0.32961 524.44258,0.32961 C513.17498,0.32961 502.6116,6.66764 497.68202,12.30144 C497.68202,86.2451 497.68202,86.2451 497.68202,86.2451 C450.49892,149.62539 450.49892,149.62539 450.49892,149.62539 C450.49892,5.96341 450.49892,5.96341 450.49892,5.96341 C405.4285,5.96341 405.4285,5.96341 405.4285,5.96341 C330.78061,129.20285 330.78061,129.20285 330.78061,129.20285 C330.78061,5.96341 330.78061,5.96341 330.78061,5.96341 C305.4285,5.96341 305.4285,5.96341 305.4285,5.96341 C237.11864,21.45637 237.11864,21.45637 237.11864,21.45637 C237.11864,39.062 237.11864,39.062 237.11864,39.062 C274.44258,42.58313 274.44258,42.58313 274.44258,42.58313 C274.44258,195.40003 274.44258,195.40003 274.44258,195.40003 C321.62568,195.40003 321.62568,195.40003 321.62568,195.40003 C393.45667,77.09017 393.45667,77.09017 393.45667,77.09017 C393.45667,195.40003 393.45667,195.40003 393.45667,195.40003 C446.27357,195.40003 446.27357,195.40003 446.27357,195.40003" id="path2852"></path>
                <path d="M94.16089,171.45637 C99.79469,171.45637 101.20315,171.45637 104.72427,171.45637 C142.75244,171.45637 163.8792,148.21693 163.8792,101.73806 C163.8792,63.00567 146.97779,41.87891 115.28765,41.87891 C111.0623,41.87891 104.72427,42.58313 94.16089,44.69581 L94.16089,171.45637 Z M94.16089,254.55496 C125.14681,261.59722 125.14681,261.59722 125.14681,261.59722 C125.14681,279.20285 125.14681,279.20285 125.14681,279.20285 C3.31582,279.20285 3.31582,279.20285 3.31582,279.20285 C3.31582,261.59722 3.31582,261.59722 3.31582,261.59722 C31.48484,254.55496 31.48484,254.55496 31.48484,254.55496 C31.48484,41.87891 31.48484,41.87891 31.48484,41.87891 C0.49892,41.87891 0.49892,41.87891 0.49892,41.87891 C0.49892,24.27327 0.49892,24.27327 0.49892,24.27327 C74.44258,1.73806 74.44258,1.73806 74.44258,1.73806 C94.16089,1.73806 94.16089,1.73806 94.16089,1.73806 C94.16089,27.09017 94.16089,27.09017 94.16089,27.09017 C128.66793,5.96341 140.63977,2.44229 158.94962,2.44229 C199.79469,2.44229 230.78061,40.47046 230.78061,93.28736 C230.78061,153.85074 189.23131,195.40003 125.85103,195.40003 C118.80878,195.40003 106.83695,194.69581 94.16089,193.99158 L94.16089,254.55496 Z" id="path2862"></path>
            </g>
        </g>
    </g>
</svg>