<svg viewBox="0 0 106.6 30" xmlns="http://www.w3.org/2000/svg"><g fill="#000"><path d="m68.8 23.89c.07-.16.16-.32.23-.48 2.12-4.41 4.24-8.8 6.34-13.21.75-1.58 1.44-3.18 2.16-4.77a.36.36 0 0 1 .39-.24c1.1 0 2.2.1 3.3.1.83 0 1.65 0 2.47-.1.26 0 .36.07.35.34 0 .69.06.58-.63.61s-1.1.09-1.64.17a.82.82 0 0 0 -.73.78 18.37 18.37 0 0 0 -.17 1.91q0 7.7 0 15.38c0 .72.1 1.43.17 2.14a1 1 0 0 0 .91 1 14.39 14.39 0 0 0 1.74.12c.26 0 .36.08.35.34 0 .64.17.67-.69.63-1.39-.07-2.78-.08-4.17-.08-1.11 0-2.22 0-3.33.05h-.4-.28c-.28 0-.32-.11-.32-.34 0-.64 0-.64.3-.64s.67 0 1 0a4.36 4.36 0 0 0 .62-.07.94.94 0 0 0 .84-1c.07-1.11.16-2.22.17-3.33 0-4.71 0-9.42 0-14.14v-.24h-.07a1 1 0 0 0 -.12.17c-2.44 5.11-4.89 10.22-7.31 15.35-.69 1.45-1.29 2.95-1.93 4.43a.35.35 0 0 1 -.35.23c-.19 0-.34 0-.45-.24q-2.94-6.24-5.9-12.46c-1.07-2.25-2.17-4.49-3.25-6.73a.83.83 0 0 0 -.21-.27 2.42 2.42 0 0 0 0 .25q0 7.42 0 14.84a21.36 21.36 0 0 0 .2 2.25.88.88 0 0 0 .78.84 17.78 17.78 0 0 0 1.79.18c.37 0 .38 0 .38.39 0 .64 0 .59-.64.58-1.59 0-3.18 0-4.77 0-.73 0-1.45 0-2.18.07-.19 0-.26-.07-.25-.26 0-.89-.11-.71.68-.73.39 0 .77 0 1.15-.06a1.14 1.14 0 0 0 1.1-1.13 14 14 0 0 0 .16-1.83q.07-6.7.11-13.41c0-1.11-.06-2.22-.1-3.33a4.93 4.93 0 0 0 -.07-.66c-.12-.66-.62-1-1.46-1.07-.43 0-.86-.05-1.29-.05-.22 0-.29-.08-.28-.29 0-.78-.09-.66.65-.65 1.16 0 2.33.08 3.5.09.61 0 1.22 0 1.83-.1a.37.37 0 0 1 .41.27c1.07 2.29 2.12 4.59 3.21 6.87 1.76 3.65 3.54 7.28 5.32 10.93.1.21.2.42.31.63z"/><path d="m0 0a110.37 110.37 0 0 0 11.37 0v1.24c0 .05-.17.12-.27.12-.77 0-1.55 0-2.33 0-1.08 0-1.37.49-1 1.49q2.43 6.4 4.88 12.75c1.09 2.82 2.21 5.63 3.32 8.45a1.38 1.38 0 0 0 .1.24.73.73 0 0 0 .11-.18c2.35-5.93 4.72-11.85 7.05-17.8.41-1 .7-2.14 1-3.22a1.07 1.07 0 0 0 .06-.31.92.92 0 0 0 -.9-1.16c-.86-.08-1.72-.17-2.57-.23-.23 0-.3-.1-.29-.32s0-.68 0-1.07a73.52 73.52 0 0 0 9.27 0v1.23s-.13.12-.2.13h-.92a1.54 1.54 0 0 0 -1.47.92c-.56 1.26-1.15 2.51-1.67 3.78q-3.64 8.94-7.26 17.83c-.78 1.93-1.41 3.91-2.1 5.87-.07.17-.13.24-.32.24-.57 0-1.13 0-1.7 0-.16 0-.26 0-.31-.21-1.47-4.38-3.31-8.62-5-12.9-1.85-4.64-3.73-9.27-5.6-13.89-.13-.33-.3-.64-.42-1a.84.84 0 0 0 -.76-.57c-.58-.03-1.17-.05-1.75-.06-.23 0-.33-.06-.32-.3s0-.69 0-1.07z"/><path d="m50.52 6.16c-.17.68-.37 1.32-.48 2-.13.86-.2 1.72-.28 2.59 0 .25-.06.36-.33.35-.81 0-.76.14-.78-.77 0-.56 0-1.11-.06-1.67a.78.78 0 0 0 -.43-.74 11.72 11.72 0 0 0 -4.74-1.61 11.17 11.17 0 0 0 -4.91.44 8.71 8.71 0 0 0 -6.1 6.93 12.18 12.18 0 0 0 .59 7.09 10.29 10.29 0 0 0 6.17 5.94 9.85 9.85 0 0 0 3.56.66 17.86 17.86 0 0 0 4.93-.66 8.87 8.87 0 0 0 2.53-1.28c.11-.07.21-.21.38-.06a.33.33 0 0 1 .07.45c-.16.33-.27.68-.43 1a.79.79 0 0 1 -.34.36 17.38 17.38 0 0 1 -5.87 1.72 16 16 0 0 1 -7.7-1 11.14 11.14 0 0 1 -7.3-8.6 12.14 12.14 0 0 1 .93-7.82 11.26 11.26 0 0 1 6.75-5.79 17.44 17.44 0 0 1 4.42-.83 23.15 23.15 0 0 1 7.36.79c.64.15 1.29.28 1.93.42z"/><path d="m95.27 16.3q0-3.73 0-7.48c0-.58 0-1.16-.05-1.75 0-.43 0-.43-.45-.43h-4.12c-.47 0-.94.08-1.41.1a.67.67 0 0 0 -.65.55c-.11.45-.18.92-.25 1.38s-.12 1.06-.17 1.6c0 .17-.09.22-.26.22-.89 0-.72.12-.74-.71 0-1.13 0-2.27-.06-3.41 0-.32 0-.65-.09-1 0-.15 0-.22.18-.22h3 2.27 6c1.61 0 3.22 0 4.82-.06h3c.4 0 .38 0 .34.38-.07.74-.14 1.47-.19 2.21s-.08 1.66-.12 2.49v.11c-.23.25-.52.08-.78.11a.29.29 0 0 1 -.19-.2c-.07-.65-.12-1.3-.18-1.95a6.59 6.59 0 0 0 -.1-.76c-.12-.63-.29-.79-.94-.81-1.23-.06-2.45-.09-3.67-.13-.53 0-1.06 0-1.58 0-.23 0-.31.08-.31.3-.05 1.69-.15 3.38-.16 5.08v11.78c0 1 .1 1.93.15 2.89a.84.84 0 0 0 .69.85 6 6 0 0 0 .85.13h1c.79 0 .67-.15.69.71 0 .22-.09.28-.29.28l-2.18-.07c-1 0-1.9-.05-2.85-.05-1.16 0-2.33 0-3.5.07-.26 0-.52 0-.77 0s-.27 0-.27-.24c0-.91-.11-.72.71-.74h1.21a1.19 1.19 0 0 0 1.3-1.21 15.25 15.25 0 0 0 .11-1.66c.05-2.83.07-5.67.1-8.5z"/></g></svg>