<svg width="24" height="24" viewBox="0 0 24 24" fill="none" xmlns="http://www.w3.org/2000/svg">
<g id="flash">
<path id="Mask" fill-rule="evenodd" clip-rule="evenodd" d="M6.87112 12.7999H12.0001C12.2841 12.7999 12.5551 12.9209 12.7441 13.1319C12.9331 13.3429 13.0241 13.6249 12.9941 13.9069L12.5451 18.0569L17.1291 11.1999H12.0001C11.7161 11.1999 11.4451 11.0789 11.2561 10.8679C11.0661 10.6569 10.9751 10.3749 11.0061 10.0929L11.4551 5.94386L6.87112 12.7999ZM11.1111 22.9999C10.9971 22.9999 10.8821 22.9809 10.7691 22.9399C10.3371 22.7819 10.0671 22.3499 10.1171 21.8929L10.8861 14.7999H5.00012C4.63112 14.7999 4.29212 14.5969 4.11812 14.2719C3.94412 13.9459 3.96412 13.5509 4.16912 13.2439L12.0581 1.44486C12.3131 1.06086 12.7971 0.902859 13.2301 1.06086C13.6631 1.21786 13.9331 1.65086 13.8831 2.10786L13.1141 9.19986H19.0001C19.3691 9.19986 19.7081 9.40386 19.8821 9.72886C20.0561 10.0549 20.0361 10.4489 19.8311 10.7559L11.9421 22.5559C11.7531 22.8399 11.4371 22.9999 11.1111 22.9999V22.9999Z" fill="white"/>
<mask id="mask0" mask-type="alpha" maskUnits="userSpaceOnUse" x="4" y="1" width="16" height="22">
<path id="Mask_2" fill-rule="evenodd" clip-rule="evenodd" d="M6.87112 12.7999H12.0001C12.2841 12.7999 12.5551 12.9209 12.7441 13.1319C12.9331 13.3429 13.0241 13.6249 12.9941 13.9069L12.5451 18.0569L17.1291 11.1999H12.0001C11.7161 11.1999 11.4451 11.0789 11.2561 10.8679C11.0661 10.6569 10.9751 10.3749 11.0061 10.0929L11.4551 5.94386L6.87112 12.7999ZM11.1111 22.9999C10.9971 22.9999 10.8821 22.9809 10.7691 22.9399C10.3371 22.7819 10.0671 22.3499 10.1171 21.8929L10.8861 14.7999H5.00012C4.63112 14.7999 4.29212 14.5969 4.11812 14.2719C3.94412 13.9459 3.96412 13.5509 4.16912 13.2439L12.0581 1.44486C12.3131 1.06086 12.7971 0.902859 13.2301 1.06086C13.6631 1.21786 13.9331 1.65086 13.8831 2.10786L13.1141 9.19986H19.0001C19.3691 9.19986 19.7081 9.40386 19.8821 9.72886C20.0561 10.0549 20.0361 10.4489 19.8311 10.7559L11.9421 22.5559C11.7531 22.8399 11.4371 22.9999 11.1111 22.9999V22.9999Z" fill="white"/>
</mask>
<g mask="url(#mask0)">
<g id="&#240;&#159;&#142;&#168; Color">
<rect id="Base" width="24" height="24" fill="white"/>
</g>
</g>
</g>
</svg>
