<svg width="19" height="24" viewBox="0 0 19 24" fill="none" xmlns="http://www.w3.org/2000/svg">
<path fill-rule="evenodd" clip-rule="evenodd" d="M16.692 15.5715C18.1295 13.9204 19 11.7625 19 9.40127C19 4.20909 14.7909 0 9.59872 0C4.40654 0 0.197449 4.20909 0.197449 9.40127C0.197449 12.2141 1.43277 14.7384 3.39049 16.4613L9.56798 23.0625L16.7231 15.5709L16.692 15.5715ZM4.15905 8.68223C4.15905 8.2734 4.18454 7.1314 4.87192 6.09551C5.54498 5.08119 6.89449 4.10849 9.66999 4.10849C12.3337 4.10849 13.6118 5.15834 14.2435 6.21797C14.8901 7.30264 14.8915 8.45102 14.8915 8.68223C14.8915 8.89152 14.8485 9.01713 14.7999 9.08341C14.7619 9.13516 14.703 9.17632 14.5766 9.17632H10.6767C10.5504 9.17632 10.4385 9.25769 10.3995 9.37784L10.0773 10.3705L9.49182 7.49483C9.46537 7.36495 9.35464 7.26925 9.2223 7.26192C9.08996 7.25459 8.96933 7.33746 8.9287 7.46362L8.37711 9.17632H4.65314C4.64634 9.17632 4.63953 9.17656 4.63274 9.17704C4.5515 9.18274 4.42583 9.16293 4.32937 9.09537C4.24964 9.03953 4.15905 8.93105 4.15905 8.68223ZM9.66999 3.52548C6.73952 3.52548 5.1878 4.56503 4.38613 5.77315C3.59878 6.9597 3.57603 8.25032 3.57603 8.68223C3.57603 9.10599 3.74731 9.3995 3.99492 9.57291C4.22106 9.7313 4.48201 9.76974 4.66236 9.75934H8.58948C8.71604 9.75934 8.82815 9.67767 8.86695 9.55719L9.14252 8.70154L9.72696 11.5722C9.75338 11.702 9.86394 11.7976 9.99615 11.8051C10.1284 11.8126 10.249 11.73 10.2899 11.604L10.8886 9.75934H14.5766C14.8636 9.75934 15.108 9.64889 15.2698 9.42844C15.421 9.22252 15.4745 8.95532 15.4745 8.68223V8.68077C15.4745 8.42612 15.4745 7.14445 14.7443 5.91944C13.9977 4.66705 12.5193 3.52548 9.66999 3.52548ZM4.15905 11.6341C4.15905 11.2581 4.46304 10.9539 4.83835 10.9539H8.67741C8.83841 10.9539 8.96892 10.8234 8.96892 10.6624C8.96892 10.5014 8.83841 10.3709 8.67741 10.3709H4.83835C4.14035 10.3709 3.57603 10.9368 3.57603 11.6341V12.0375C3.57603 12.7351 4.14159 13.3007 4.83923 13.3007H14.2113C14.909 13.3007 15.4745 12.7351 15.4745 12.0375V11.6341C15.4745 10.9365 14.909 10.3709 14.2113 10.3709H11.3981C11.2372 10.3709 11.1066 10.5014 11.1066 10.6624C11.1066 10.8234 11.2372 10.9539 11.3981 10.9539H14.2113C14.587 10.9539 14.8915 11.2585 14.8915 11.6341V12.0375C14.8915 12.4132 14.587 12.7177 14.2113 12.7177H4.83923C4.46358 12.7177 4.15905 12.4132 4.15905 12.0375V11.6341Z" fill="{{ background_color }}"/>
<circle cx="9.59875" cy="9.4013" r="8.93121" fill="white"/>
<path fill-rule="evenodd" clip-rule="evenodd" d="M3.82297 8.98584C3.82297 8.54588 3.8504 7.31693 4.59012 6.20217C5.31443 5.11063 6.76669 4.06387 9.75351 4.06387C12.62 4.06387 13.9955 5.19365 14.6752 6.33396C15.3711 7.50121 15.3726 8.73703 15.3726 8.98584C15.3726 9.21107 15.3263 9.34624 15.274 9.41757C15.2331 9.47326 15.1698 9.51756 15.0337 9.51756H10.8369C10.701 9.51756 10.5805 9.60512 10.5385 9.73442L10.1918 10.8027L9.56177 7.70803C9.53331 7.56826 9.41415 7.46529 9.27173 7.45739C9.12931 7.4495 8.9995 7.53868 8.95577 7.67445L8.36219 9.51756H4.35468C4.34736 9.51756 4.34003 9.51782 4.33272 9.51833C4.2453 9.52446 4.11007 9.50314 4.00625 9.43044C3.92046 9.37035 3.82297 9.25361 3.82297 8.98584ZM9.75351 3.43646C6.59992 3.43646 4.93005 4.55516 4.06734 5.85527C3.22004 7.13216 3.19556 8.52105 3.19556 8.98584C3.19556 9.44187 3.37988 9.75773 3.64634 9.94434C3.88971 10.1148 4.17052 10.1562 4.3646 10.145H8.59073C8.72693 10.145 8.84757 10.0571 8.88933 9.92743L9.18588 9.00662L9.81482 12.0959C9.84325 12.2355 9.96223 12.3384 10.1045 12.3465C10.2468 12.3545 10.3766 12.2657 10.4206 12.1301L11.0649 10.145H15.0337C15.3426 10.145 15.6055 10.0261 15.7797 9.78887C15.9424 9.56727 16 9.27973 16 8.98584V8.98427C16 8.71023 16 7.33098 15.2142 6.0127C14.4107 4.66496 12.8198 3.43646 9.75351 3.43646ZM3.82296 12.1625C3.82296 11.7578 4.1501 11.4305 4.55398 11.4305H8.68535C8.85861 11.4305 8.99906 11.29 8.99906 11.1168C8.99906 10.9435 8.85861 10.8031 8.68535 10.8031H4.55398C3.80285 10.8031 3.19556 11.4121 3.19556 12.1625V12.5965C3.19556 13.3473 3.80417 13.9559 4.55494 13.9559H14.6406C15.3914 13.9559 16 13.3473 16 12.5966V12.1625C16 11.4117 15.3914 10.8031 14.6406 10.8031H11.6132C11.44 10.8031 11.2995 10.9435 11.2995 11.1168C11.2995 11.29 11.44 11.4305 11.6132 11.4305H14.6406C15.0449 11.4305 15.3726 11.7582 15.3726 12.1625V12.5966C15.3726 13.0008 15.0449 13.3285 14.6406 13.3285H4.55494C4.15068 13.3285 3.82296 13.0008 3.82296 12.5965V12.1625Z" fill="{{ background_color }}"/>
</svg>
